<?xml version="1.0" encoding="UTF-8" standalone="no"?>
<!-- Svg Vector Icons : http://www.onlinewebfonts.com/icon -->

<svg
   xmlns:dc="http://purl.org/dc/elements/1.1/"
   xmlns:cc="http://creativecommons.org/ns#"
   xmlns:rdf="http://www.w3.org/1999/02/22-rdf-syntax-ns#"
   xmlns:svg="http://www.w3.org/2000/svg"
   xmlns="http://www.w3.org/2000/svg"
   xmlns:sodipodi="http://sodipodi.sourceforge.net/DTD/sodipodi-0.dtd"
   xmlns:inkscape="http://www.inkscape.org/namespaces/inkscape"
   version="1.1"
   x="0px"
   y="0px"
   viewBox="0 0 1000 1000"
   enable-background="new 0 0 1000 1000"
   xml:space="preserve"
   id="svg4815"
   sodipodi:docname="cog.svg"
   inkscape:version="0.92.2 (5c3e80d, 2017-08-06)"><defs
     id="defs4819" /><sodipodi:namedview
     pagecolor="#ffffff"
     bordercolor="#666666"
     borderopacity="1"
     objecttolerance="10"
     gridtolerance="10"
     guidetolerance="10"
     inkscape:pageopacity="0"
     inkscape:pageshadow="2"
     inkscape:window-width="640"
     inkscape:window-height="480"
     id="namedview4817"
     showgrid="false"
     inkscape:zoom="0.236"
     inkscape:cx="500"
     inkscape:cy="500"
     inkscape:window-x="0"
     inkscape:window-y="27"
     inkscape:window-maximized="0"
     inkscape:current-layer="svg4815" /><metadata
     id="metadata4809"> Svg Vector Icons : http://www.onlinewebfonts.com/icon <rdf:RDF><cc:Work
     rdf:about=""><dc:format>image/svg+xml</dc:format><dc:type
       rdf:resource="http://purl.org/dc/dcmitype/StillImage" /><dc:title></dc:title></cc:Work></rdf:RDF></metadata><g
     id="g4813"><path
       d="M727.6,161.2c22.5,15.1,43.1,32.2,61.7,51l70-39.3c33.2,27,56,58.8,68.5,95.5l-61.5,52.1c5.8,11.6,10.9,23.5,15.5,35.7c4.9,12.8,9,25.9,12.6,39.2l80.3,1c15.2,40,19.1,79,11.6,117l-79.1,14.4c-1.8,26.4-6.2,52.8-13.3,78.9l69,41c-6.8,42.1-22.9,77.8-48.5,107l-75.7-27.1c-15.1,22.5-32.1,43.1-50.9,61.8l39.3,69.9c-26.9,33.2-58.9,56-95.5,68.5l-52.1-61.4c-11.7,5.7-23.5,10.9-35.7,15.4c-12.9,4.9-25.9,9-39.2,12.5l-1,80.4c-39.9,15.2-78.9,19-117,11.6l-14.4-79.1c-26.3-1.8-52.8-6.2-79-13.3l-40.9,69c-42.2-6.8-77.9-23-107.1-48.5l27.1-75.7c-22.5-15-43.1-32.1-61.7-50.9l-70,39.4c-33.1-27-56-58.9-68.5-95.6l61.4-52c-5.7-11.6-10.8-23.6-15.4-35.6c-4.9-12.9-9.1-26-12.6-39.2l-80.3-1.1c-15.2-39.9-19.1-78.9-11.6-116.9l79.1-14.4c1.8-26.3,6.2-52.7,13.3-78.9l-69-41c6.8-42.2,23-77.8,48.5-107.1l75.7,27.1c15.1-22.5,32.2-43.1,50.9-61.7l-39.3-70c27-33.1,58.8-56,95.5-68.5l52.1,61.4c11.7-5.7,23.5-10.8,35.7-15.4c12.8-4.9,25.9-9,39.2-12.6l1-80.3c39.9-15.2,78.9-19.1,116.9-11.6l14.4,79.1c26.4,1.8,52.8,6.2,78.9,13.3l41-69c42.1,6.8,77.8,23,107.1,48.5L727.6,161.2L727.6,161.2z M752.3,405C728,340.4,679,285.1,611.2,254.4c-67.9-30.7-141.7-31-206.3-6.7C340.4,272,285.1,321,254.4,388.8c-30.7,67.8-31,141.6-6.7,206.3c24.3,64.5,73.2,119.8,141.1,150.5c67.8,30.8,141.6,31,206.2,6.7c64.6-24.2,119.9-73.2,150.5-141.1C776.3,543.4,776.6,469.5,752.3,405z"
       id="path4811" /></g></svg>